PathFileType	4	(X/Y/Z)	C:/Users/beibeiliu/ov580/test_trc/User1\sequence.36_training_dense_left.trc
DataRate	CameraRate	NumFrames	NumMarkers	Units	OrigDataRate	OrigDataStartFrame	OrigNumFrames
120	120	13	19	mm	120	216	246
Frame#	Time	ThumbCMC			ThumbMCP			ThumbIP			ThumbTip			IndexMCP			IndexPIP			IndexTip			MiddleMCP			MiddlePIP			MiddleTip			RingMCP			RingPIP			RingTip			PinkyMCP			PinkyPIP			PinkyTip			BackHand1			BackHand2			BackHand3	
		X0	Y0	Z0	X1	Y1	Z1	X2	Y2	Z2	X3	Y3	Z3	X4	Y4	Z4	X5	Y5	Z5	X6	Y6	Z6	X7	Y7	Z7	X8	Y8	Z8	X9	Y9	Z9	X10	Y10	Z10	X11	Y11	Z11	X12	Y12	Z12	X13	Y13	Z13	X14	Y14	Z14	X15	Y15	Z15	X16	Y16	Z16	X17	Y17	Z17	X18	Y18	Z18	
215	1.79167	-123.336	-45.4071	30.1984	-111.149	-46.2716	0.116307	-108.47	-56.6763	-26.0808	-100.21	-66.3841	-45.3714	-122.705	-99.8834	-30.5838	-89.4106	-104.544	-35.1625	-81.5886	-82.1569	-9.32905	-113.531	-123.281	-20.6865	-82.1132	-118.729	-25.1596	-60.8881	-93.6461	1.62466	-103.418	-133.519	-3.68868	-73.349	-125.614	1.2741	-65.6358	-98.8584	18.2762	-100.043	-141.421	21.9542	-77.3947	-125.076	19.078	-77.3076	-92.331	30.693	-146.909	-110.596	41.6194	-151.248	-86.8073	71.062	-153.384	-72.2911	34.3519	
216	1.8	-125.238	-43.1636	33.7767	-114.631	-48.3122	-1.06739	-112.614	-54.484	-25.2715	-106.758	-67.7003	-47.7911	-125.224	-100.297	-32.202	-89.6805	-101.925	-34.2343	-83.6905	-79.6949	-10.098	-119.586	-119.658	-21.6413	-81.8519	-117.3	-26.7567	-63.1644	-96.9587	1.11869	-109.779	-132.965	-0.679006	-75.3293	-123.799	0.152725	-67.8921	-96.7066	18.3265	-103.467	-139.492	19.7405	-79.5563	-125.246	18.097	-79.7549	-92.4337	28.1722	-150.222	-107.968	40.3	-150.534	-91.3151	71.563	-153.942	-72.7268	36.7666	
217	1.80833	-128.193	-42.2882	27.9846	-117.421	-47.1375	-1.52634	-114.988	-53.9211	-23.8742	-110.255	-67.0949	-46.2878	-125.418	-99.4082	-33.8324	-94.3509	-103.594	-36.0623	-86.0987	-77.9482	-11.1562	-117.757	-122.21	-23.4956	-85.2706	-118.104	-27.1374	-63.5208	-97.7351	-1.95942	-108.245	-133.218	-2.28697	-77.5477	-125.574	-0.108114	-69.398	-95.4761	18.1507	-106.723	-139.146	22.5085	-79.2585	-126.393	20.5697	-83.1604	-92.8639	30.5364	-152.049	-108.063	40.6033	-150.96	-89.0351	72.474	-155.417	-72.725	37.0975	
218	1.81667	-129.897	-43.0986	28.8963	-119.582	-44.8923	0.860109	-120.756	-53.9154	-25.5561	-114.303	-64.6495	-49.2061	-128.068	-99.5466	-32.0588	-96.0655	-102.922	-35.2974	-88.4753	-77.1105	-10.1079	-120.331	-123.637	-22.0002	-88.0343	-120.202	-25.1719	-65.4644	-96.7161	-0.776721	-112.494	-134.081	-0.34209	-78.2097	-122.337	-2.6585	-70.232	-100.615	17.3618	-108.162	-140.822	24.424	-82.994	-121.926	17.73	-84.9736	-91.331	29.5978	-152.633	-108.067	41.9837	-153.948	-90.919	72.6301	-158.293	-71.6063	39.7603	
219	1.825	-131.35	-43.1642	30.2558	-122.405	-42.8969	-0.16414	-125.112	-54.1531	-28.8566	-116.824	-63.5469	-47.5929	-130.847	-98.876	-32.5961	-97.156	-102.985	-35.0775	-92.4404	-75.1245	-8.21424	-123.687	-121.414	-20.5761	-89.2313	-121.113	-24.8679	-67.0323	-98.6714	-1.23149	-110.505	-133.695	-3.04281	-82.4939	-122.757	-4.53134	-70.8097	-98.346	18.3171	-109.67	-137.64	20.5662	-83.2665	-125.039	18.9037	-87.2302	-94.1249	27.3257	-152.071	-109.301	41.838	-156.083	-88.9749	71.2186	-158.62	-73.7729	37.3912	
220	1.83333	-132.246	-40.7535	30.0622	-123.525	-43.0946	-0.315718	-123.597	-50.2904	-27.5294	-118.488	-66.6158	-48.6645	-131.336	-99.2648	-32.363	-97.3561	-99.6679	-35.677	-90.8629	-77.2043	-11.2633	-126.455	-118.522	-22.0353	-90.1505	-117.144	-28.3629	-67.9389	-94.3672	-2.84291	-112.084	-133.959	-3.8671	-82.2841	-124.608	-1.9159	-72.5902	-100.155	16.7649	-106.396	-140.502	20.1101	-84.8337	-124.389	17.2548	-90.2599	-91.9414	27.9173	-152.919	-111.947	41.8905	-154.833	-88.4718	68.2158	-159.951	-71.4271	35.2258	
221	1.84167	-132.241	-38.7391	29.3604	-123.086	-42.9001	-2.88587	-123.293	-53.1042	-29.9847	-116.335	-67.0355	-50.9928	-132.329	-99.2488	-31.8044	-99.6768	-101.894	-36.7838	-92.2387	-77.2475	-10.6043	-126.329	-118.626	-24.3197	-89.3483	-118.524	-25.8405	-68.7872	-94.7346	-0.4152	-115.397	-130.94	-4.9931	-82.6907	-122.687	-2.65106	-72.5872	-98.7295	19.7679	-109.628	-137.404	17.5794	-85.5783	-123.177	18.0418	-87.9925	-92.247	31.2503	-154.184	-108.647	38.9962	-157.203	-87.993	74.4235	-160.904	-69.2923	33.3708	
222	1.85	-131.436	-39.9479	29.797	-121.608	-43.4614	-3.08647	-122.097	-52.7832	-30.1605	-114.318	-69.717	-51.5728	-133.656	-95.624	-33.1363	-100.566	-99.797	-39.1983	-90.2713	-77.1316	-13.2396	-128.109	-117.271	-22.6163	-89.1743	-115.286	-26.7631	-70.1889	-93.8282	0.728684	-115.163	-129.957	-6.4385	-83.3687	-123.066	-3.65315	-72.4489	-100.973	18.8659	-114.028	-137.038	21.0363	-84.9876	-120.652	19.753	-88.4167	-90.5325	32.3464	-155.214	-109.145	40.1632	-156.32	-86.11	70.5453	-159.272	-69.4439	38.5031	
223	1.85833	-130.049	-38.1743	29.2189	-115.973	-41.7396	2.10527	-116.838	-53.5266	-23.9947	-109.137	-65.3286	-49.8054	-131.33	-94.769	-34.2308	-98.7664	-101.097	-36.7215	-89.4372	-78.2176	-8.96849	-125.163	-119.163	-22.0014	-90.679	-115.628	-28.0647	-69.7611	-91.983	-0.612082	-117.166	-128.643	-6.35497	-82.4122	-120.731	-3.00348	-73.1305	-100.313	16.111	-110.912	-136.11	16.6383	-88.0635	-119.765	16.7943	-88.4565	-90.572	31.0705	-157.686	-104.69	37.6403	-159.252	-89.9989	70.1848	-157.981	-69.0649	36.989	
224	1.86667	-127.65	-39.7688	29.4376	-115.117	-45.9053	0.0803666	-109.708	-49.0913	-26.708	-102.232	-64.7753	-48.6921	-128.673	-93.4001	-35.5004	-94.8918	-99.0527	-35.8994	-86.6962	-76.3022	-9.72606	-122.993	-118.272	-24.0186	-86.8322	-116.524	-24.5725	-69.7473	-91.5889	-0.298575	-118.531	-128.748	-3.47752	-81.1321	-122.68	-1.48225	-72.4492	-99.703	17.3778	-111.444	-138.647	18.3597	-85.9583	-123.448	18.7434	-87.547	-90.326	30.5314	-157.032	-105.496	40.0194	-159.963	-85.867	70.577	-158.821	-65.4957	33.1537	
225	1.875	-125.583	-36.3168	28.0125	-109.859	-38.8834	-0.72271	-105.289	-51.091	-21.7463	-96.5646	-67.9499	-48.7423	-124.687	-94.5485	-36.5634	-92.1474	-96.3961	-37.508	-82.3951	-82.8281	-8.37399	-125.456	-113.756	-24.1166	-87.8867	-117.658	-23.8641	-70.0017	-94.7456	0.661385	-113.665	-130.153	-5.34315	-81.9249	-119.33	-4.00391	-72.4608	-100.858	19.2977	-112.601	-134.865	16.0474	-87.6763	-122.389	18.4718	-85.8401	-91.3738	31.9945	-158.031	-102.646	38.2192	-157.046	-82.6611	70.1414	-156.411	-63.6244	33.1217	
226	1.88333	-123.439	-35.858	26.4637	-106.227	-43.3029	0.629962	-99.1402	-50.3836	-28.1549	-90.44	-68.7672	-47.2575	-124.038	-91.4485	-34.8532	-90.6341	-98.5286	-36.7691	-77.08	-82.4462	-10.2443	-122.057	-113.734	-25.1339	-84.4609	-114.945	-23.7661	-68.3447	-93.4889	2.62394	-113.709	-126.027	-7.14123	-81.7092	-121.698	-0.36106	-72.3957	-97.2552	21.6597	-111.706	-137.354	17.372	-86.3085	-123.503	20.4567	-86.7221	-93.6495	28.4056	-156.889	-104.935	36.1235	-158.202	-81.0375	65.5872	-155.758	-63.095	34.8585	
227	1.89167	-121.369	-37.627	30.3332	-103.641	-42.8365	2.61151	-95.329	-52.8623	-22.4925	-85.2448	-67.9117	-43.137	-123.189	-90.43	-33.5942	-90.9941	-98.3991	-38.4848	-74.6139	-80.4149	-9.57258	-120.424	-111.923	-25.4381	-82.8176	-113.108	-24.6057	-65.6867	-93.2461	3.16463	-111.728	-129.274	-5.17728	-79.4841	-119.504	-0.708834	-71.8671	-97.3348	24.3218	-115.599	-134.664	18.1434	-87.8208	-125.919	19.2176	-82.275	-94.9194	31.5855	-158.086	-99.9683	32.7576	-157.052	-82.1487	66.7534	-156.31	-59.8932	30.2342	
